<svg xmlns="http://www.w3.org/2000/svg" style="display:none">
  <!-- Набор простых, быстрых локальных иконок (без внешних CDN) -->

  <symbol id="inbox" viewBox="0 0 24 24">
    <path d="M4 4h16v11h-4l-2 3h-4l-2-3H4V4zm2 2v7h3.2l2 3h1.6l2-3H18V6H6z" />
  </symbol>

  <symbol id="kanban" viewBox="0 0 24 24">
    <path d="M4 5a2 2 0 0 1 2-2h3v18H6a2 2 0 0 1-2-2V5zm7-2h3v12h-3V3zm5 0h2a2 2 0 0 1 2 2v14a2 2 0 0 1-2 2h-2V3z" />
  </symbol>

  <symbol id="settings" viewBox="0 0 24 24">
    <path d="M12 8.5a3.5 3.5 0 1 0 0 7 3.5 3.5 0 0 0 0-7zm9 3.1v.8l-2 .8a7.7 7.7 0 0 1-.6 1.4l1.1 1.9-.6.6-1.9-1.1c-.4.3-.9.5-1.4.6l-.8 2h-.8l-.8-2c-.5-.1-1-.3-1.4-.6l-1.9 1.1-.6-.6 1.1-1.9c-.3-.4-.5-.9-.6-1.4l-2-.8v-.8l2-.8c.1-.5.3-1 .6-1.4L5.9 7.4l.6-.6 1.9 1.1c.4-.3.9-.5 1.4-.6l.8-2h.8l.8 2c.5.1 1 .3 1.4.6l1.9-1.1.6.6-1.1 1.9c.3.4.5.9.6 1.4l2 .8z" />
  </symbol>

  <symbol id="book" viewBox="0 0 24 24">
    <path d="M6 3h11a2 2 0 0 1 2 2v14a2 2 0 0 0-2-2H6a2 2 0 0 0-2 2V5a2 2 0 0 1 2-2zm0 2v10h11a3.9 3.9 0 0 1 1 .1V5H6zm0 14h11a1 1 0 0 1 1 1H5a1 1 0 0 1 1-1z"/>
  </symbol>

  <symbol id="user" viewBox="0 0 24 24">
    <path d="M12 12a4 4 0 1 0-4-4 4 4 0 0 0 4 4zm0 2c-4.4 0-8 2.2-8 5v2h16v-2c0-2.8-3.6-5-8-5z" />
  </symbol>

  <!-- Оператор (гарнитура) -->
  <symbol id="operator" viewBox="0 0 24 24">
    <path d="M12 3a8 8 0 0 0-8 8v5a3 3 0 0 0 3 3h2v-7H7v-1a5 5 0 0 1 10 0v1h-2v7h2a3 3 0 0 0 3-3v-5a8 8 0 0 0-8-8zm-1 16h2v2h-2v-2z" />
  </symbol>

  <!-- Закреплено (pin) -->
  <symbol id="pin" viewBox="0 0 24 24">
    <path d="M14 2l8 8-3 1-2 7-4-4-6 6v-2l5-5-4-4 7-2 1-3z" />
  </symbol>

  <!-- Важная задача (fire) -->
  <symbol id="fire" viewBox="0 0 24 24">
    <path d="M13.5 1.5c.7 2.6-.7 4.5-2.2 6-1.4 1.4-1.8 2.6-1.8 3.7 0 1.5 1.1 2.8 2.8 2.8 1.6 0 2.9-1.3 2.9-2.9 0-1.7-.8-2.7-1.7-3.7.2 2-1.6 2.8-1.6 2.8s.6-1.6-.6-2.9c-.8-.8-1-1.8-.6-2.7-2.6 2.1-5.1 4.7-5.1 9.1A7.5 7.5 0 0 0 20 15.7c0-6-4.6-9.1-6.5-14.2z" />
  </symbol>

  <!-- Нарушен SLA (alert-circle) -->
  <symbol id="alert-circle" viewBox="0 0 24 24">
    <path d="M12 2a10 10 0 1 0 0 20 10 10 0 0 0 0-20zm1 14h-2v-2h2v2zm0-4h-2V6h2v6z" />
  </symbol>

  <symbol id="logout" viewBox="0 0 24 24">
    <path d="M10 6V4h10v16H10v-2h8V6h-8zm-1 5H3v2h6l-2.5 2.5 1.4 1.4L13 12 7.9 6.9 6.5 8.3 9 11z" />
  </symbol>

  <symbol id="login" viewBox="0 0 24 24">
    <path d="M14 6V4H4v16h10v-2H6V6h8zm1 5h6v2h-6l2.5 2.5-1.4 1.4L11 12l5.1-5.1 1.4 1.4L15 11z" />
  </symbol>

  <symbol id="edit" viewBox="0 0 24 24">
    <path d="M3 17.2V21h3.8L18 9.8l-3.8-3.8L3 17.2zM20.7 7.1a1 1 0 0 0 0-1.4l-2.4-2.4a1 1 0 0 0-1.4 0l-1.9 1.9 3.8 3.8 1.9-1.9z" />
  </symbol>

  <symbol id="dot" viewBox="0 0 24 24">
    <circle cx="12" cy="12" r="5" />
  </symbol>

  <symbol id="menu" viewBox="0 0 24 24">
    <path d="M4 6h16v2H4V6Zm0 5h16v2H4v-2Zm0 5h16v2H4v-2Z" />
  </symbol>

  <symbol id="clock" viewBox="0 0 24 24">
    <path d="M12 2a10 10 0 1 0 10 10A10 10 0 0 0 12 2zm1 11h5v-2h-4V6h-2v7z"/>
  </symbol>

  <symbol id="check" viewBox="0 0 24 24">
    <path d="M9 16.2 4.8 12l-1.4 1.4L9 19 21 7l-1.4-1.4z"/>
  </symbol>

  <symbol id="pause" viewBox="0 0 24 24">
    <path d="M7 5h3v14H7V5zm7 0h3v14h-3V5z"/>
  </symbol>

  <symbol id="x" viewBox="0 0 24 24">
    <path d="M18.3 5.7 12 12l6.3 6.3-1.4 1.4L10.6 13.4 4.3 19.7 2.9 18.3 9.2 12 2.9 5.7 4.3 4.3l6.3 6.3 6.3-6.3 1.4 1.4z"/>
  </symbol>

  <symbol id="bell" viewBox="0 0 24 24">
    <path d="M12 22a2.5 2.5 0 0 0 2.45-2h-4.9A2.5 2.5 0 0 0 12 22zm7-6V11a7 7 0 1 0-14 0v5l-2 2v1h18v-1l-2-2zm-2 2H7v-.17l1.41-1.41A2 2 0 0 0 9 15V11a3 3 0 1 1 6 0v4a2 2 0 0 0 .59 1.42L17 17.83V18z"/>
  </symbol>

  <symbol id="copy" viewBox="0 0 24 24">
    <path d="M16 1H6a2 2 0 0 0-2 2v12h2V3h10V1zm3 4H10a2 2 0 0 0-2 2v14a2 2 0 0 0 2 2h9a2 2 0 0 0 2-2V7a2 2 0 0 0-2-2zm0 16H10V7h9v14z"/>
  </symbol>

  <!-- Eye (preview) -->
  <symbol id="eye" viewBox="0 0 24 24">
    <path d="M12 5c5.5 0 9.7 4.2 11 6.6.2.3.2.6 0 .9C21.7 14.8 17.5 19 12 19S2.3 14.8 1 12.5c-.2-.3-.2-.6 0-.9C2.3 9.2 6.5 5 12 5Zm0 2C7.7 7 4.2 10.3 3.1 12c1.1 1.7 4.6 5 8.9 5s7.8-3.3 8.9-5C19.8 10.3 16.3 7 12 7Zm0 2.5A2.5 2.5 0 1 1 12 14.5a2.5 2.5 0 0 1 0-5Z" />
  </symbol>

  <symbol id="moon" viewBox="0 0 24 24">
    <path d="M12.74 2.02a1 1 0 0 1 .57 1.86A7.5 7.5 0 1 0 20.12 14a1 1 0 0 1 1.86.57A9.5 9.5 0 1 1 12.74 2.02z"/>
  </symbol>

  <symbol id="sun" viewBox="0 0 24 24">
    <path d="M12 18a6 6 0 1 1 0-12 6 6 0 0 1 0 12zm0-16a1 1 0 0 1 1 1v1a1 1 0 1 1-2 0V3a1 1 0 0 1 1-1zm0 18a1 1 0 0 1 1 1v1a1 1 0 1 1-2 0v-1a1 1 0 0 1 1-1zM3 11a1 1 0 0 1 1-1h1a1 1 0 1 1 0 2H4a1 1 0 0 1-1-1zm16 0a1 1 0 0 1 1-1h1a1 1 0 1 1 0 2h-1a1 1 0 0 1-1-1zM5.64 5.64a1 1 0 0 1 1.41 0l.7.7a1 1 0 0 1-1.41 1.41l-.7-.7a1 1 0 0 1 0-1.41zm11.31 11.31a1 1 0 0 1 1.41 0l.7.7a1 1 0 0 1-1.41 1.41l-.7-.7a1 1 0 0 1 0-1.41zM18.36 5.64a1 1 0 0 1 0 1.41l-.7.7a1 1 0 0 1-1.41-1.41l.7-.7a1 1 0 0 1 1.41 0zM7.05 16.95a1 1 0 0 1 0 1.41l-.7.7a1 1 0 0 1-1.41-1.41l.7-.7a1 1 0 0 1 1.41 0z"/>
  </symbol>
</svg>
